<?xml version="1.0" standalone="no"?>
<!DOCTYPE svg PUBLIC "-//W3C//DTD SVG 20010904//EN"
 "http://www.w3.org/TR/2001/REC-SVG-20010904/DTD/svg10.dtd">
<svg version="1.0" xmlns="http://www.w3.org/2000/svg"
 width="120.000000pt" height="120.000000pt" viewBox="0 0 120.000000 120.000000"
 preserveAspectRatio="xMidYMid meet">

<g transform="translate(0.000000,120.000000) scale(0.100000,-0.100000)"
fill="#000000" stroke="none">
<path d="M1162 595 c0 -16 2 -22 5 -12 2 9 2 23 0 30 -3 6 -5 -1 -5 -18z"/>
<path d="M1072 565 c0 -16 2 -22 5 -12 2 9 2 23 0 30 -3 6 -5 -1 -5 -18z"/>
<path d="M62 520 c0 -14 2 -19 5 -12 2 6 2 18 0 25 -3 6 -5 1 -5 -13z"/>
<path d="M1152 500 c0 -14 2 -19 5 -12 2 6 2 18 0 25 -3 6 -5 1 -5 -13z"/>
<path d="M417 486 c-19 -13 -38 -22 -41 -18 -3 3 -6 0 -6 -7 0 -7 -5 -9 -10
-6 -6 4 -9 3 -8 -2 5 -13 -38 -63 -47 -55 -5 4 -5 2 -1 -5 4 -7 -4 -18 -20
-26 -17 -9 -23 -17 -15 -21 6 -4 11 -13 11 -19 0 -7 -5 -4 -11 6 -6 9 -14 15
-20 12 -5 -3 -6 2 -3 12 5 17 5 17 -6 1 -13 -21 -40 -24 -40 -5 0 7 -9 18 -21
25 -19 12 -19 10 5 -30 14 -24 31 -42 36 -41 6 2 9 -3 7 -10 -1 -6 4 -11 11
-9 8 1 11 -2 8 -7 -10 -15 82 -91 147 -122 92 -43 196 -55 293 -35 104 21 176
59 249 131 59 58 126 168 124 204 0 9 -11 -8 -25 -37 -24 -50 -26 -53 -40 -35
-14 17 -14 16 -4 -5 12 -25 5 -46 -12 -36 -8 5 -9 1 -5 -10 4 -10 3 -15 -3
-11 -6 3 -10 18 -11 33 -1 24 -2 23 -9 -8 -5 -19 -6 -39 -3 -44 4 -5 1 -6 -6
-2 -6 4 -9 16 -6 27 4 13 2 19 -8 19 -8 0 -14 8 -13 17 0 10 -4 18 -10 18 -6
0 -23 15 -38 32 -15 18 -42 43 -59 55 -18 13 -4 -5 29 -38 34 -34 66 -76 73
-94 6 -19 8 -31 5 -27 -4 4 -12 2 -19 -3 -7 -5 -133 -10 -305 -10 l-294 -1 -3
25 c-3 18 10 39 53 86 32 34 73 70 93 80 20 11 31 19 25 20 -6 0 -27 -11 -47
-24z"/>
<path d="M505 498 c28 -18 170 -17 187 1 11 11 9 12 -12 5 -31 -11 -125 -12
-165 -1 -27 6 -28 6 -10 -5z"/>
<path d="M1061 494 c0 -11 3 -14 6 -6 3 7 2 16 -1 19 -3 4 -6 -2 -5 -13z"/>
<path d="M71 464 c0 -11 3 -14 6 -6 3 7 2 16 -1 19 -3 4 -6 -2 -5 -13z"/>
<path d="M131 464 c0 -11 3 -14 6 -6 3 7 2 16 -1 19 -3 4 -6 -2 -5 -13z"/>
<path d="M1132 429 c-6 -25 -22 -61 -36 -81 -13 -20 -23 -38 -21 -40 2 -2 -7
-17 -21 -33 l-26 -30 22 33 c12 17 19 32 15 32 -3 0 1 13 10 30 27 52 16 45
-23 -16 -22 -32 -49 -68 -60 -78 -26 -23 -30 -44 -4 -25 14 11 13 10 -2 -9
-20 -23 -32 -30 -21 -12 12 19 -7 10 -48 -24 -89 -72 -193 -106 -322 -106
-152 0 -264 47 -370 154 -39 39 -85 98 -104 131 -18 33 -29 51 -26 40 4 -11 8
-26 8 -32 0 -7 5 -13 10 -13 5 0 6 -7 3 -16 -4 -10 -2 -13 6 -8 7 4 8 3 4 -4
-11 -18 -14 -15 -35 26 -11 20 -20 33 -20 27 -1 -26 69 -127 129 -186 110
-109 234 -159 395 -159 104 0 180 17 264 60 67 33 168 122 213 188 36 53 80
158 76 181 -2 9 -9 -5 -16 -30z m-997 -128 c-3 -5 -1 -12 5 -16 5 -3 10 -11
10 -18 0 -6 -6 -2 -14 8 -13 18 -13 35 0 35 3 0 3 -4 -1 -9z"/>
<path d="M147 419 c4 -13 8 -18 11 -10 2 7 -1 18 -6 23 -8 8 -9 4 -5 -13z"/>
</g>
</svg>
